<?xml version="1.0" standalone="no"?>
<!DOCTYPE svg PUBLIC "-//W3C//DTD SVG 20010904//EN"
 "http://www.w3.org/TR/2001/REC-SVG-20010904/DTD/svg10.dtd">
<svg version="1.0" xmlns="http://www.w3.org/2000/svg"
 width="112.000000pt" height="112.000000pt" viewBox="0 0 112.000000 112.000000"
 preserveAspectRatio="xMidYMid meet">
<metadata>
Created by potrace 1.14, written by Peter Selinger 2001-2017
</metadata>
<g transform="translate(0.000000,112.000000) scale(0.100000,-0.100000)"
fill="#000000" stroke="none">
<path d="M236 1023 c-4 -9 -1 -20 6 -25 11 -6 11 -8 0 -8 -9 0 -12 -13 -11
-38 3 -47 -5 -62 -36 -62 -13 0 -27 -5 -30 -10 -4 -6 -10 -8 -15 -5 -5 3 -11
1 -15 -5 -3 -5 -15 -10 -26 -10 -11 0 -17 -4 -14 -10 3 -5 0 -7 -8 -4 -9 3
-16 -2 -19 -14 -3 -10 -5 -145 -4 -300 1 -216 4 -284 14 -294 10 -10 61 -13
202 -14 181 -1 190 -2 207 -22 10 -12 34 -24 54 -27 28 -5 41 -1 62 19 18 17
41 26 69 28 l43 3 -2 -35 c-1 -19 2 -49 7 -66 10 -28 14 -30 60 -31 27 -1 53
4 59 10 5 7 9 36 7 65 l-2 52 36 1 c62 2 125 6 128 9 1 1 8 3 15 4 6 1 11 7
10 14 -2 7 1 12 5 12 5 0 9 123 10 273 1 278 -4 317 -37 317 -9 0 -27 7 -39
16 -12 8 -22 12 -22 8 0 -3 -6 -1 -14 5 -7 6 -29 13 -47 14 -19 2 -39 5 -44 9
-25 14 -183 0 -240 -22 -39 -15 -75 -12 -75 5 0 8 -4 15 -10 15 -5 0 -10 5
-10 11 0 13 -30 44 -42 44 -5 0 -12 5 -16 12 -12 20 -123 65 -169 68 -31 3
-43 0 -47 -12z"/>
</g>
</svg>
